<svg width="800" height="800" viewBox="0 0 800 800" fill="none" xmlns="http://www.w3.org/2000/svg">
<rect width="800" height="800" fill="white"/>
<path d="M375.124 338.096V472.304H380.308C388.564 472.304 392.692 476.048 392.692 483.536V494.768C392.692 502.256 388.564 506 380.308 506H329.332C325.684 506 322.708 505.136 320.404 503.408C318.1 501.488 316.948 498.608 316.948 494.768V483.536C316.948 479.696 318.1 476.912 320.404 475.184C322.708 473.264 325.684 472.304 329.332 472.304H334.804V419.888H257.044V472.304H262.228C270.484 472.304 274.612 476.048 274.612 483.536V494.768C274.612 502.256 270.484 506 262.228 506H211.54C207.7 506 204.628 505.136 202.324 503.408C200.02 501.488 198.868 498.608 198.868 494.768V483.536C198.868 479.696 200.02 476.912 202.324 475.184C204.628 473.264 207.7 472.304 211.54 472.304H216.724V338.096H211.252C207.604 338.096 204.628 337.232 202.324 335.504C200.02 333.584 198.868 330.704 198.868 326.864V315.632C198.868 311.792 200.02 309.008 202.324 307.28C204.628 305.36 207.7 304.4 211.54 304.4H262.228C270.484 304.4 274.612 308.144 274.612 315.632V326.864C274.612 334.352 270.484 338.096 262.228 338.096H257.044V386.192H334.804V338.096H329.332C325.684 338.096 322.708 337.232 320.404 335.504C318.1 333.584 316.948 330.704 316.948 326.864V315.632C316.948 311.792 318.1 309.008 320.404 307.28C322.708 305.36 325.684 304.4 329.332 304.4H380.308C388.564 304.4 392.692 308.144 392.692 315.632V326.864C392.692 334.352 388.564 338.096 380.308 338.096H375.124ZM501.628 304.4C532.348 304.4 555.964 312.752 572.476 329.456C589.18 345.968 597.532 369.68 597.532 400.592C597.532 421.904 593.596 440.528 585.724 456.464C577.852 472.208 566.62 484.4 552.028 493.04C537.436 501.68 520.348 506 500.764 506H435.676C429.34 506 426.172 503.408 426.172 498.224V491.024C426.172 485.84 429.34 483.248 435.676 483.248H443.164V327.152H435.676C429.34 327.152 426.172 324.56 426.172 319.376V312.176C426.172 306.992 429.34 304.4 435.676 304.4H501.628ZM498.172 483.248C521.596 483.248 539.548 476.144 552.028 461.936C564.7 447.728 571.036 427.568 571.036 401.456C571.036 376.304 565.18 357.68 553.468 345.584C541.756 333.296 523.9 327.152 499.9 327.152H469.084V483.248H498.172Z" fill="#333333"/>
</svg>
