<svg width="2500" height="800" viewBox="0 0 2500 800" fill="none" xmlns="http://www.w3.org/2000/svg">
<rect width="2500" height="800" fill="white"/>
<path d="M342.48 338.096V472.304H347.664C355.92 472.304 360.048 476.048 360.048 483.536V494.768C360.048 502.256 355.92 506 347.664 506H296.688C293.04 506 290.064 505.136 287.76 503.408C285.456 501.488 284.304 498.608 284.304 494.768V483.536C284.304 479.696 285.456 476.912 287.76 475.184C290.064 473.264 293.04 472.304 296.688 472.304H302.16V419.888H224.4V472.304H229.584C237.84 472.304 241.968 476.048 241.968 483.536V494.768C241.968 502.256 237.84 506 229.584 506H178.896C175.056 506 171.984 505.136 169.68 503.408C167.376 501.488 166.224 498.608 166.224 494.768V483.536C166.224 479.696 167.376 476.912 169.68 475.184C171.984 473.264 175.056 472.304 178.896 472.304H184.08V338.096H178.608C174.96 338.096 171.984 337.232 169.68 335.504C167.376 333.584 166.224 330.704 166.224 326.864V315.632C166.224 311.792 167.376 309.008 169.68 307.28C171.984 305.36 175.056 304.4 178.896 304.4H229.584C237.84 304.4 241.968 308.144 241.968 315.632V326.864C241.968 334.352 237.84 338.096 229.584 338.096H224.4V386.192H302.16V338.096H296.688C293.04 338.096 290.064 337.232 287.76 335.504C285.456 333.584 284.304 330.704 284.304 326.864V315.632C284.304 311.792 285.456 309.008 287.76 307.28C290.064 305.36 293.04 304.4 296.688 304.4H347.664C355.92 304.4 360.048 308.144 360.048 315.632V326.864C360.048 334.352 355.92 338.096 347.664 338.096H342.48ZM456.654 508.88C434.382 508.88 417.006 502.448 404.526 489.584C392.046 476.528 385.806 458.48 385.806 435.44C385.806 411.824 392.334 393.2 405.39 379.568C418.446 365.936 436.302 359.12 458.958 359.12C481.23 359.12 498.606 365.648 511.086 378.704C523.566 391.568 529.806 409.424 529.806 432.272C529.806 455.888 523.278 474.608 510.222 488.432C497.166 502.064 479.31 508.88 456.654 508.88ZM456.942 475.76C478.446 475.76 489.198 461.36 489.198 432.56C489.198 405.68 479.022 392.24 458.67 392.24C448.302 392.24 440.334 395.984 434.766 403.472C429.198 410.768 426.414 421.328 426.414 435.152C426.414 448.4 429.006 458.48 434.19 465.392C439.374 472.304 446.958 475.76 456.942 475.76ZM624.828 416.72C643.452 422.096 656.508 428.24 663.996 435.152C671.484 442.064 675.228 451.376 675.228 463.088C675.228 471.92 672.636 479.792 667.452 486.704C662.46 493.616 655.356 499.088 646.14 503.12C636.924 506.96 626.364 508.88 614.46 508.88C596.22 508.88 581.628 505.904 570.684 499.952C559.932 493.808 554.556 485.744 554.556 475.76C554.556 469.424 556.572 464.336 560.604 460.496C564.636 456.464 569.916 454.448 576.444 454.448C582.588 454.448 587.676 456.56 591.708 460.784C595.932 465.008 598.044 470.192 598.044 476.336C598.044 477.872 597.948 479.024 597.756 479.792C601.596 481.904 606.876 482.96 613.596 482.96C620.508 482.96 625.884 481.808 629.724 479.504C633.564 477.008 635.484 473.648 635.484 469.424C635.484 465.008 634.044 461.648 631.164 459.344C628.284 457.04 622.428 454.64 613.596 452.144C599.388 448.112 588.156 443.888 579.9 439.472C571.836 435.056 565.98 430.064 562.332 424.496C558.876 418.928 557.148 412.016 557.148 403.76C557.148 394.928 559.644 387.152 564.636 380.432C569.82 373.712 576.924 368.528 585.948 364.88C595.164 361.04 605.724 359.12 617.628 359.12C634.524 359.12 648.06 362 658.236 367.76C668.412 373.52 673.5 381.2 673.5 390.8C673.5 397.136 671.484 402.224 667.452 406.064C663.42 409.904 658.14 411.824 651.612 411.824C645.468 411.824 640.284 409.808 636.06 405.776C632.028 401.552 630.012 396.368 630.012 390.224C630.012 389.072 630.108 388.208 630.3 387.632C627.036 385.712 622.524 384.752 616.764 384.752C610.812 384.752 606.012 386.096 602.364 388.784C598.908 391.28 597.18 394.736 597.18 399.152C597.18 402.992 599.004 406.16 602.652 408.656C606.492 410.96 613.884 413.648 624.828 416.72ZM832.134 472.304C835.782 472.304 838.758 473.264 841.062 475.184C843.366 476.912 844.518 479.696 844.518 483.536V494.768C844.518 498.608 843.366 501.488 841.062 503.408C838.758 505.136 835.782 506 832.134 506H800.166C796.518 506 793.35 504.752 790.662 502.256C788.166 499.568 786.918 496.4 786.918 492.752V478.928C783.078 487.76 777.222 494.96 769.35 500.528C761.67 506.096 753.414 508.88 744.582 508.88C731.334 508.88 720.582 504.944 712.326 497.072C704.262 489.2 700.23 478.832 700.23 465.968C700.23 451.376 704.934 440.624 714.342 433.712C723.75 426.608 737.958 423.056 756.966 423.056C765.798 423.056 775.782 424.112 786.918 426.224V415.568C786.918 407.312 784.71 400.976 780.294 396.56C776.07 392.144 769.926 389.936 761.862 389.936C756.678 389.936 752.838 390.8 750.342 392.528C749.958 398.48 747.75 403.472 743.718 407.504C739.686 411.344 734.694 413.264 728.742 413.264C722.214 413.264 716.934 411.344 712.902 407.504C708.87 403.472 706.854 398.288 706.854 391.952C706.854 381.968 711.942 374 722.118 368.048C732.294 362.096 745.542 359.12 761.862 359.12C783.174 359.12 799.302 364.592 810.246 375.536C821.19 386.288 826.662 401.456 826.662 421.04V472.304H832.134ZM756.678 479.504C764.358 479.504 771.078 476.336 776.838 470C782.79 463.472 786.15 455.696 786.918 446.672C780.582 445.52 772.614 444.944 763.014 444.944C754.95 444.944 749.094 446.48 745.446 449.552C741.798 452.432 739.974 457.136 739.974 463.664C739.974 468.464 741.51 472.304 744.582 475.184C747.654 478.064 751.686 479.504 756.678 479.504ZM1107 472.304C1110.84 472.304 1113.91 473.264 1116.21 475.184C1118.52 476.912 1119.67 479.696 1119.67 483.536V494.768C1119.67 498.608 1118.52 501.488 1116.21 503.408C1113.91 505.136 1110.84 506 1107 506H1058.61C1050.36 506 1046.23 502.256 1046.23 494.768V483.536C1046.23 476.048 1050.36 472.304 1058.61 472.304H1062.07V429.392C1062.07 415.376 1060.63 405.68 1057.75 400.304C1055.06 394.928 1050.07 392.24 1042.77 392.24C1037.4 392.24 1032.31 393.968 1027.51 397.424C1022.71 400.88 1018.87 405.584 1015.99 411.536C1013.3 417.296 1011.96 423.44 1011.96 429.968V472.304H1015.41C1019.06 472.304 1022.04 473.264 1024.34 475.184C1026.64 476.912 1027.8 479.696 1027.8 483.536V494.768C1027.8 498.608 1026.64 501.488 1024.34 503.408C1022.04 505.136 1019.06 506 1015.41 506H968.756C960.5 506 956.372 502.256 956.372 494.768V483.536C956.372 476.048 960.5 472.304 968.756 472.304H972.212V429.392C972.212 415.376 970.772 405.68 967.892 400.304C965.204 394.928 960.212 392.24 952.916 392.24C947.54 392.24 942.452 393.968 937.652 397.424C932.852 400.88 929.012 405.584 926.132 411.536C923.444 417.296 922.1 423.44 922.1 429.968V472.304H925.556C929.204 472.304 932.18 473.264 934.484 475.184C936.788 476.912 937.94 479.696 937.94 483.536V494.768C937.94 498.608 936.788 501.488 934.484 503.408C932.18 505.136 929.204 506 925.556 506H876.884C873.236 506 870.26 505.136 867.956 503.408C865.652 501.488 864.5 498.608 864.5 494.768V483.536C864.5 479.696 865.652 476.912 867.956 475.184C870.26 473.264 873.236 472.304 876.884 472.304H882.356V395.696H876.884C873.236 395.696 870.26 394.832 867.956 393.104C865.652 391.184 864.5 388.304 864.5 384.464V373.232C864.5 365.744 868.628 362 876.884 362H908.852C912.692 362 915.86 363.248 918.356 365.744C920.852 368.24 922.1 371.408 922.1 375.248V390.8C925.94 381.392 931.7 373.808 939.38 368.048C947.06 362.096 955.316 359.12 964.148 359.12C975.86 359.12 985.46 362 992.948 367.76C1000.44 373.52 1005.72 381.872 1008.79 392.816C1014.36 382.064 1021.08 373.808 1028.95 368.048C1037.01 362.096 1045.36 359.12 1054 359.12C1069.56 359.12 1081.36 364.208 1089.43 374.384C1097.68 384.368 1101.81 398.96 1101.81 418.16V472.304H1107ZM1299.23 304.4C1329.95 304.4 1353.57 312.752 1370.08 329.456C1386.79 345.968 1395.14 369.68 1395.14 400.592C1395.14 421.904 1391.2 440.528 1383.33 456.464C1375.46 472.208 1364.23 484.4 1349.63 493.04C1335.04 501.68 1317.95 506 1298.37 506H1233.28C1226.95 506 1223.78 503.408 1223.78 498.224V491.024C1223.78 485.84 1226.95 483.248 1233.28 483.248H1240.77V327.152H1233.28C1226.95 327.152 1223.78 324.56 1223.78 319.376V312.176C1223.78 306.992 1226.95 304.4 1233.28 304.4H1299.23ZM1295.78 483.248C1319.2 483.248 1337.15 476.144 1349.63 461.936C1362.31 447.728 1368.64 427.568 1368.64 401.456C1368.64 376.304 1362.79 357.68 1351.07 345.584C1339.36 333.296 1321.51 327.152 1297.51 327.152H1266.69V483.248H1295.78ZM1554.29 483.248C1560.43 483.248 1563.51 485.84 1563.51 491.024V498.224C1563.51 503.408 1560.43 506 1554.29 506H1531.25C1528.37 506 1525.87 505.04 1523.76 503.12C1521.84 501.008 1520.88 498.416 1520.88 495.344V477.2C1517.23 486.224 1510.9 493.808 1501.87 499.952C1493.04 505.904 1483.63 508.88 1473.65 508.88C1460.21 508.88 1449.36 505.04 1441.11 497.36C1432.85 489.488 1428.72 479.12 1428.72 466.256C1428.72 452.816 1433.23 442.448 1442.26 435.152C1451.47 427.856 1464.53 424.208 1481.43 424.208C1494.29 424.208 1507.44 425.744 1520.88 428.816V415.856C1520.88 403.952 1518.1 395.12 1512.53 389.36C1506.96 383.6 1498.32 380.72 1486.61 380.72C1477.59 380.72 1470.87 382.448 1466.45 385.904C1467.79 388.208 1468.47 390.704 1468.47 393.392C1468.47 397.808 1466.93 401.552 1463.86 404.624C1460.79 407.696 1457.04 409.232 1452.63 409.232C1447.44 409.232 1443.31 407.6 1440.24 404.336C1437.17 401.072 1435.63 396.656 1435.63 391.088C1435.63 381.68 1440.53 374 1450.32 368.048C1460.11 362.096 1472.59 359.12 1487.76 359.12C1506.77 359.12 1521.27 364.208 1531.25 374.384C1541.43 384.56 1546.51 398.96 1546.51 417.584V483.248H1554.29ZM1479.7 487.856C1486.99 487.856 1493.71 485.936 1499.86 482.096C1506.19 478.064 1511.19 472.784 1514.83 466.256C1518.67 459.536 1520.69 452.24 1520.88 444.368C1512.24 443.024 1500.34 442.352 1485.17 442.352C1464.43 442.352 1454.07 450.032 1454.07 465.392C1454.07 472.496 1456.37 478.064 1460.98 482.096C1465.59 485.936 1471.83 487.856 1479.7 487.856ZM1672.89 359.12C1680.57 359.12 1686.43 360.944 1690.46 364.592C1694.49 368.048 1696.51 372.944 1696.51 379.28C1696.51 384.272 1694.87 388.496 1691.61 391.952C1688.35 395.216 1684.12 396.848 1678.94 396.848C1674.33 396.848 1670.49 395.504 1667.42 392.816C1664.35 389.936 1662.62 386.288 1662.23 381.872C1656.28 382.448 1650.81 385.328 1645.82 390.512C1640.83 395.504 1636.79 402.032 1633.72 410.096C1630.84 417.968 1629.4 426.416 1629.4 435.44V483.248H1642.94C1649.27 483.248 1652.44 485.84 1652.44 491.024V498.224C1652.44 503.408 1649.27 506 1642.94 506H1595.99C1589.85 506 1586.78 503.408 1586.78 498.224V491.024C1586.78 485.84 1589.85 483.248 1595.99 483.248H1603.48V384.752H1595.99C1589.85 384.752 1586.78 382.16 1586.78 376.976V369.776C1586.78 364.592 1589.85 362 1595.99 362H1618.75C1621.82 362 1624.31 363.056 1626.23 365.168C1628.35 367.088 1629.4 369.584 1629.4 372.656V398C1632.86 386.096 1638.43 376.688 1646.11 369.776C1653.98 362.672 1662.91 359.12 1672.89 359.12ZM1925.63 362C1931.97 362 1935.14 364.592 1935.14 369.776V376.976C1935.14 382.16 1931.97 384.752 1925.63 384.752H1918.15L1882.15 499.664C1881.57 501.584 1880.51 503.12 1878.98 504.272C1877.44 505.424 1875.52 506 1873.22 506H1865.44C1860.83 506 1857.76 503.888 1856.23 499.664L1825.99 417.872L1795.46 499.664C1793.92 503.888 1790.85 506 1786.24 506H1778.47C1776.16 506 1774.24 505.424 1772.71 504.272C1771.17 503.12 1770.11 501.584 1769.54 499.664L1733.54 384.752H1726.05C1719.71 384.752 1716.55 382.16 1716.55 376.976V369.776C1716.55 364.592 1719.71 362 1726.05 362H1767.23C1773.57 362 1776.74 364.592 1776.74 369.776V376.976C1776.74 382.16 1773.57 384.752 1767.23 384.752H1759.75L1785.95 469.136L1814.47 392.24C1816 387.632 1819.07 385.328 1823.68 385.328H1830.88C1835.11 385.328 1838.18 387.632 1840.1 392.24L1868.32 469.136L1894.53 384.752H1887.04C1880.9 384.752 1877.83 382.16 1877.83 376.976V369.776C1877.83 364.592 1880.9 362 1887.04 362H1925.63ZM1982.24 335.216C1976.86 335.216 1972.35 333.488 1968.7 330.032C1965.06 326.384 1963.23 321.872 1963.23 316.496C1963.23 310.928 1965.06 306.416 1968.7 302.96C1972.35 299.312 1976.86 297.488 1982.24 297.488C1987.62 297.488 1992.03 299.312 1995.49 302.96C1999.14 306.608 2000.96 311.12 2000.96 316.496C2000.96 321.872 1999.14 326.384 1995.49 330.032C1992.03 333.488 1987.62 335.216 1982.24 335.216ZM1966.4 506C1960.26 506 1957.18 503.408 1957.18 498.224V491.024C1957.18 485.84 1960.26 483.248 1966.4 483.248H1973.89V384.752H1966.4C1960.26 384.752 1957.18 382.16 1957.18 376.976V369.776C1957.18 364.592 1960.26 362 1966.4 362H1989.15C1992.22 362 1994.72 363.056 1996.64 365.168C1998.75 367.088 1999.81 369.584 1999.81 372.656V483.248H2007.3C2013.63 483.248 2016.8 485.84 2016.8 491.024V498.224C2016.8 503.408 2013.63 506 2007.3 506H1966.4ZM2108.68 422.192C2126.72 427.376 2139.49 433.328 2146.98 440.048C2154.47 446.576 2158.21 455.312 2158.21 466.256C2158.21 474.512 2155.81 481.904 2151.01 488.432C2146.21 494.768 2139.4 499.76 2130.56 503.408C2121.92 507.056 2111.94 508.88 2100.61 508.88C2082.76 508.88 2068.45 505.52 2057.7 498.8C2047.14 491.888 2041.86 482.96 2041.86 472.016C2041.86 466.448 2043.4 462.032 2046.47 458.768C2049.54 455.504 2053.67 453.872 2058.85 453.872C2063.27 453.872 2066.92 455.408 2069.8 458.48C2072.87 461.552 2074.4 465.296 2074.4 469.712C2074.4 473.744 2073.16 477.008 2070.66 479.504C2075.27 486.032 2085.16 489.296 2100.32 489.296C2110.69 489.296 2118.56 487.472 2123.94 483.824C2129.51 480.176 2132.29 475.28 2132.29 469.136C2132.29 465.104 2131.43 461.84 2129.7 459.344C2127.97 456.656 2124.9 454.352 2120.48 452.432C2116.26 450.32 2109.73 448.016 2100.9 445.52C2086.5 441.488 2075.27 437.456 2067.2 433.424C2059.33 429.2 2053.67 424.592 2050.21 419.6C2046.76 414.416 2045.03 407.984 2045.03 400.304C2045.03 392.24 2047.43 385.136 2052.23 378.992C2057.03 372.656 2063.65 367.76 2072.1 364.304C2080.74 360.848 2090.53 359.12 2101.48 359.12C2118.56 359.12 2131.91 362.192 2141.51 368.336C2151.11 374.288 2155.91 382.64 2155.91 393.392C2155.91 398.96 2154.37 403.472 2151.3 406.928C2148.23 410.192 2144.2 411.824 2139.2 411.824C2134.6 411.824 2130.76 410.288 2127.68 407.216C2124.8 404.144 2123.36 400.304 2123.36 395.696C2123.36 391.664 2124.61 388.4 2127.11 385.904C2122.88 381.104 2114.24 378.704 2101.19 378.704C2092.16 378.704 2084.87 380.624 2079.3 384.464C2073.73 388.304 2070.95 393.296 2070.95 399.44C2070.95 402.704 2072 405.488 2074.12 407.792C2076.23 410.096 2079.88 412.304 2085.06 414.416C2090.44 416.528 2098.31 419.12 2108.68 422.192ZM2331.53 483.248C2337.67 483.248 2340.74 485.84 2340.74 491.024V498.224C2340.74 503.408 2337.67 506 2331.53 506H2290.63C2284.49 506 2281.42 503.408 2281.42 498.224V491.024C2281.42 485.84 2284.49 483.248 2290.63 483.248H2298.12V427.664C2298.12 410.96 2295.91 399.152 2291.5 392.24C2287.27 385.136 2280.07 381.584 2269.9 381.584C2262.79 381.584 2255.88 383.984 2249.16 388.784C2242.63 393.392 2237.26 399.44 2233.03 406.928C2229 414.416 2226.98 422.288 2226.98 430.544V483.248H2234.47C2240.81 483.248 2243.98 485.84 2243.98 491.024V498.224C2243.98 503.408 2240.81 506 2234.47 506H2193.86C2187.53 506 2184.36 503.408 2184.36 498.224V491.024C2184.36 485.84 2187.53 483.248 2193.86 483.248H2201.35V315.632H2193.86C2187.53 315.632 2184.36 313.04 2184.36 307.856V300.656C2184.36 295.472 2187.53 292.88 2193.86 292.88H2216.62C2219.5 292.88 2221.9 293.936 2223.82 296.048C2225.93 297.968 2226.98 300.464 2226.98 303.536V394.256C2231.21 384.272 2237.93 375.92 2247.14 369.2C2256.36 362.48 2265.96 359.12 2275.94 359.12C2291.88 359.12 2303.88 364.592 2311.94 375.536C2320.01 386.288 2324.04 402.32 2324.04 423.632V483.248H2331.53Z" fill="#333333"/>
</svg>
